<svg version="1.1" xmlns="http://www.w3.org/2000/svg" xmlns:xlink="http://www.w3.org/1999/xlink" width="217" height="269"><defs/><g><g transform="translate(10,10) scale(1,1)"><path fill="#ffffff" stroke="none" d="M 16.5 0 L 71.5 0 Q 88 0 88 16.5 L 88 15.5 Q 88 32 71.5 32 L 16.5 32 Q 0 32 0 15.5 L 0 16.5 Q 0 0 16.5 0 Z"/></g><g transform="translate(10,10) scale(1,1)"><path fill="none" stroke="#000000" d="M 16.5 0 L 71.5 0 Q 88 0 88 16.5 L 88 15.5 Q 88 32 71.5 32 L 16.5 32 Q 0 32 0 15.5 L 0 16.5 Q 0 0 16.5 0 Z" stroke-miterlimit="10"/></g><g transform="translate(10,10) scale(1,1)"><g><path fill="none" stroke="none"/><text fill="#000000" stroke="none" font-family="Arial" font-size="13px" font-style="normal" font-weight="normal" text-decoration="none" x="30" y="22.5">Start</text></g></g><g transform="translate(10,10) scale(1,1)"><rect fill="#ffffff" stroke="none" x="0" y="102" width="79" height="45"/></g><g transform="translate(10,10) scale(1,1)"><path fill="none" stroke="#000000" d="M 0 102 L 79 102 L 79 147 L 0 147 L 0 102 Z Z" stroke-miterlimit="10"/></g><g transform="translate(10,10) scale(1,1)"><g><path fill="none" stroke="none"/><text fill="#000000" stroke="none" font-family="Arial" font-size="13px" font-style="normal" font-weight="normal" text-decoration="none" x="23.5" y="124.5">Modif</text><text fill="#000000" stroke="none" font-family="Arial" font-size="13px" font-style="normal" font-weight="normal" text-decoration="none" x="9.5" y="137.5">BluePrints</text></g></g><g transform="translate(10,10) scale(1,1)"><path fill="none" stroke="#000000" d="M 36 32 L 36 102" stroke-miterlimit="10"/></g><g transform="translate(10,10) scale(1,1)"><path fill="#000000" stroke="none" d="M 31.790482243984012 91.83732514237585 L 36 102 L 40.20951775601599 91.83732514237585"/></g><g transform="translate(10,10) scale(1,1)"><path fill="none" stroke="#000000" d="M 31.790482243984012 91.83732514237585 L 36 102 L 40.20951775601599 91.83732514237585 L 31.790482243984012 91.83732514237585" stroke-miterlimit="10"/></g><g transform="translate(10,10) scale(1,1)"><rect fill="#ffffff" stroke="none" x="0" y="217" width="74" height="32"/></g><g transform="translate(10,10) scale(1,1)"><path fill="none" stroke="#000000" d="M 0 217 L 74 217 L 74 249 L 0 249 L 0 217 Z Z" stroke-miterlimit="10"/></g><g transform="translate(10,10) scale(1,1)"><g><path fill="none" stroke="none"/><text fill="#000000" stroke="none" font-family="Arial" font-size="13px" font-style="normal" font-weight="normal" text-decoration="none" x="9.5" y="239.5">Process1</text></g></g><g transform="translate(10,10) scale(1,1)"><path fill="none" stroke="#000000" d="M 29 147 L 29 217" stroke-miterlimit="10"/></g><g transform="translate(10,10) scale(1,1)"><path fill="#000000" stroke="none" d="M 24.790482243984012 206.83732514237585 L 29 217 L 33.20951775601599 206.83732514237585"/></g><g transform="translate(10,10) scale(1,1)"><path fill="none" stroke="#000000" d="M 24.790482243984012 206.83732514237585 L 29 217 L 33.20951775601599 206.83732514237585 L 24.790482243984012 206.83732514237585" stroke-miterlimit="10"/></g><g transform="translate(10,10) scale(1,1)"><path fill="#ffffff" stroke="none" d="M 84 231.5 L 140.5 217 L 197 231.5 L 140.5 246 L 84 231.5"/></g><g transform="translate(10,10) scale(1,1)"><path fill="none" stroke="#000000" d="M 84 231.5 L 140.5 217 L 197 231.5 L 140.5 246 L 84 231.5 L 84 231.5" stroke-miterlimit="10"/></g><g transform="translate(10,10) scale(1,1)"><g><path fill="none" stroke="none"/><text fill="#000000" stroke="none" font-family="Arial" font-size="13px" font-style="normal" font-weight="normal" text-decoration="none" x="112" y="238">Decision1</text></g></g><g transform="translate(10,10) scale(1,1)"><path fill="none" stroke="#000000" d="M 51 147 L 51 209 M 51 209 A 8 8 0 0 0 59 217 L 84 217" stroke-miterlimit="10"/></g><g transform="translate(10,10) scale(1,1)"><path fill="#000000" stroke="none" d="M 73.83732514237585 221.209517756016 L 84 217 L 73.83732514237585 212.790482243984"/></g><g transform="translate(10,10) scale(1,1)"><path fill="none" stroke="#000000" d="M 73.83732514237585 221.209517756016 L 84 217 L 73.83732514237585 212.790482243984 L 73.83732514237585 221.209517756016" stroke-miterlimit="10"/></g></g></svg>