<svg version="1.1" xmlns="http://www.w3.org/2000/svg" xmlns:xlink="http://www.w3.org/1999/xlink" width="375" height="402"><defs/><g><g transform="translate(10,10) scale(1,1)"><rect fill="#C0C0C0" stroke="none" x="7" y="7" width="76" height="24" opacity="0.2"/></g><g transform="translate(10,10) scale(1,1)"><rect fill="#ffffff" stroke="none" x="0" y="0" width="76" height="24"/></g><g transform="translate(10,10) scale(1,1)"><path fill="none" stroke="#000000" d="M 0 0 L 76 0 L 76 24 L 0 24 L 0 0 Z Z" stroke-miterlimit="10"/></g><g transform="translate(10,10) scale(1,1)"><rect fill="#ffffff" stroke="none" x="0" y="0" width="76" height="24"/></g><g transform="translate(10,10) scale(1,1)"><path fill="none" stroke="#000000" d="M 0 0 L 76 0 L 76 24 L 0 24 L 0 0 Z Z" stroke-miterlimit="10"/></g><g transform="translate(10,10) scale(1,1)"><g><path fill="none" stroke="none"/><text fill="#000000" stroke="none" font-family="Arial" font-size="13px" font-style="normal" font-weight="bold" text-decoration="none" x="5.5" y="19.5">OpenStack</text><path fill="none" stroke="#000000" d="M 71.5 19.5 L 4.5 19.5" stroke-miterlimit="10"/></g></g><g transform="translate(10,10) scale(1,1)"><rect fill="#C0C0C0" stroke="none" x="133" y="7" width="57" height="24" opacity="0.2"/></g><g transform="translate(10,10) scale(1,1)"><rect fill="#ffffff" stroke="none" x="126" y="0" width="57" height="24"/></g><g transform="translate(10,10) scale(1,1)"><path fill="none" stroke="#000000" d="M 126 0 L 183 0 L 183 24 L 126 24 L 126 0 Z Z" stroke-miterlimit="10"/></g><g transform="translate(10,10) scale(1,1)"><rect fill="#ffffff" stroke="none" x="126" y="0" width="57" height="24"/></g><g transform="translate(10,10) scale(1,1)"><path fill="none" stroke="#000000" d="M 126 0 L 183 0 L 183 24 L 126 24 L 126 0 Z Z" stroke-miterlimit="10"/></g><g transform="translate(10,10) scale(1,1)"><g><path fill="none" stroke="none"/><text fill="#000000" stroke="none" font-family="Arial" font-size="13px" font-style="normal" font-weight="bold" text-decoration="none" x="131" y="19.5">Red Hat</text><path fill="none" stroke="#000000" d="M 178.5 19.5 L 130.5 19.5" stroke-miterlimit="10"/></g></g><g transform="translate(10,10) scale(1,1)"><path fill="none" stroke="#000000" d="M 77 12 L 125 12" stroke-miterlimit="10"/></g><g transform="translate(10,10) scale(1,1)"><path fill="#ffffff" stroke="none" d="M 252 0 L 340 0 L 350 10 L 350 48 L 252 48 L 252 0"/></g><g transform="translate(10,10) scale(1,1)"><path fill="none" stroke="#000000" d="M 252 0 L 340 0 L 350 10 L 350 48 L 252 48 L 252 0 L 252 0" stroke-miterlimit="10"/></g><g transform="translate(10,10) scale(1,1)"><path fill="none" stroke="#000000" d="M 340 0 L 340 10 L 350 10 L 340 0" stroke-miterlimit="10"/></g><g transform="translate(10,10) scale(1,1)"><g><path fill="none" stroke="none"/><text fill="#000000" stroke="none" font-family="Arial" font-size="13px" font-style="normal" font-weight="normal" text-decoration="none" x="257" y="18">Liberty</text></g></g><g transform="translate(10,10) scale(1,1)"><path fill="none" stroke="#000000" d="M 184 14 L 251 20" stroke-miterlimit="10" stroke-dasharray="3"/></g><g transform="translate(10,10) scale(1,1)"><rect fill="#C0C0C0" stroke="none" x="133" y="41" width="59" height="24" opacity="0.2"/></g><g transform="translate(10,10) scale(1,1)"><rect fill="#ffffff" stroke="none" x="126" y="34" width="59" height="24"/></g><g transform="translate(10,10) scale(1,1)"><path fill="none" stroke="#000000" d="M 126 34 L 185 34 L 185 58 L 126 58 L 126 34 Z Z" stroke-miterlimit="10"/></g><g transform="translate(10,10) scale(1,1)"><rect fill="#ffffff" stroke="none" x="126" y="34" width="59" height="24"/></g><g transform="translate(10,10) scale(1,1)"><path fill="none" stroke="#000000" d="M 126 34 L 185 34 L 185 58 L 126 58 L 126 34 Z Z" stroke-miterlimit="10"/></g><g transform="translate(10,10) scale(1,1)"><g><path fill="none" stroke="none"/><text fill="#000000" stroke="none" font-family="Arial" font-size="13px" font-style="normal" font-weight="bold" text-decoration="none" x="132.5" y="53.5">Mirantis</text><path fill="none" stroke="#000000" d="M 180.5 53.5 L 130.5 53.5" stroke-miterlimit="10"/></g></g><g transform="translate(10,10) scale(1,1)"><path fill="none" stroke="#000000" d="M 77 23 L 125 37" stroke-miterlimit="10"/></g><g transform="translate(10,10) scale(1,1)"><rect fill="#C0C0C0" stroke="none" x="133" y="75" width="58" height="24" opacity="0.2"/></g><g transform="translate(10,10) scale(1,1)"><rect fill="#ffffff" stroke="none" x="126" y="68" width="58" height="24"/></g><g transform="translate(10,10) scale(1,1)"><path fill="none" stroke="#000000" d="M 126 68 L 184 68 L 184 92 L 126 92 L 126 68 Z Z" stroke-miterlimit="10"/></g><g transform="translate(10,10) scale(1,1)"><rect fill="#ffffff" stroke="none" x="126" y="68" width="58" height="24"/></g><g transform="translate(10,10) scale(1,1)"><path fill="none" stroke="#000000" d="M 126 68 L 184 68 L 184 92 L 126 92 L 126 68 Z Z" stroke-miterlimit="10"/></g><g transform="translate(10,10) scale(1,1)"><g><path fill="none" stroke="none"/><text fill="#000000" stroke="none" font-family="Arial" font-size="13px" font-style="normal" font-weight="bold" text-decoration="none" x="134.5" y="87.5">Centos</text><path fill="none" stroke="#000000" d="M 176.5 87.5 L 133.5 87.5" stroke-miterlimit="10"/></g></g><g transform="translate(10,10) scale(1,1)"><path fill="none" stroke="#000000" d="M 60 25 L 133 67" stroke-miterlimit="10"/></g><g transform="translate(10,10) scale(1,1)"><path fill="#ffffff" stroke="none" d="M 255 34 L 343 34 L 353 44 L 353 82 L 255 82 L 255 34"/></g><g transform="translate(10,10) scale(1,1)"><path fill="none" stroke="#000000" d="M 255 34 L 343 34 L 353 44 L 353 82 L 255 82 L 255 34 L 255 34" stroke-miterlimit="10"/></g><g transform="translate(10,10) scale(1,1)"><path fill="none" stroke="#000000" d="M 343 34 L 343 44 L 353 44 L 343 34" stroke-miterlimit="10"/></g><g transform="translate(10,10) scale(1,1)"><g><path fill="none" stroke="none"/><text fill="#000000" stroke="none" font-family="Arial" font-size="13px" font-style="normal" font-weight="normal" text-decoration="none" x="260" y="52">Mikata</text></g></g><g transform="translate(10,10) scale(1,1)"><path fill="none" stroke="#000000" d="M 186 48 L 254 54" stroke-miterlimit="10" stroke-dasharray="3"/></g><g transform="translate(10,10) scale(1,1)"><path fill="#ffffff" stroke="none" d="M 254 68 L 342 68 L 352 78 L 352 116 L 254 116 L 254 68"/></g><g transform="translate(10,10) scale(1,1)"><path fill="none" stroke="#000000" d="M 254 68 L 342 68 L 352 78 L 352 116 L 254 116 L 254 68 L 254 68" stroke-miterlimit="10"/></g><g transform="translate(10,10) scale(1,1)"><path fill="none" stroke="#000000" d="M 342 68 L 342 78 L 352 78 L 342 68" stroke-miterlimit="10"/></g><g transform="translate(10,10) scale(1,1)"><g><path fill="none" stroke="none"/><text fill="#000000" stroke="none" font-family="Arial" font-size="13px" font-style="normal" font-weight="normal" text-decoration="none" x="259" y="86">Mikata</text></g></g><g transform="translate(10,10) scale(1,1)"><path fill="none" stroke="#000000" d="M 185 82 L 253 88" stroke-miterlimit="10" stroke-dasharray="3"/></g><g transform="translate(10,10) scale(1,1)"><rect fill="#C0C0C0" stroke="none" x="261" y="75" width="56" height="24" opacity="0.2"/></g><g transform="translate(10,10) scale(1,1)"><rect fill="#ffffff" stroke="none" x="254" y="68" width="56" height="24"/></g><g transform="translate(10,10) scale(1,1)"><path fill="none" stroke="#000000" d="M 254 68 L 310 68 L 310 92 L 254 92 L 254 68 Z Z" stroke-miterlimit="10"/></g><g transform="translate(10,10) scale(1,1)"><rect fill="#ffffff" stroke="none" x="254" y="68" width="56" height="24"/></g><g transform="translate(10,10) scale(1,1)"><path fill="none" stroke="#000000" d="M 254 68 L 310 68 L 310 92 L 254 92 L 254 68 Z Z" stroke-miterlimit="10"/></g><g transform="translate(10,10) scale(1,1)"><g><path fill="none" stroke="none"/><text fill="#000000" stroke="none" font-family="Arial" font-size="13px" font-style="normal" font-weight="bold" text-decoration="none" x="259.5" y="87.5">Object1</text><path fill="none" stroke="#000000" d="M 305.5 87.5 L 258.5 87.5" stroke-miterlimit="10"/></g></g><g transform="translate(10,10) scale(1,1)"><path fill="none" stroke="#000000" d="M 185 80 L 253 80" stroke-miterlimit="10"/></g><g transform="translate(10,10) scale(1,1)"><rect fill="#ffffff" stroke="none" x="256" y="360" width="99" height="22"/></g><g transform="translate(10,10) scale(1,1)"><path fill="none" stroke="#000000" d="M 256 360 L 355 360 L 355 382 L 256 382 L 256 360 Z Z" stroke-miterlimit="10"/></g><g transform="translate(10,10) scale(1,1)"><path fill="none" stroke="#000000" d="M 289 360 L 289 382" stroke-miterlimit="10"/></g><g transform="translate(10,10) scale(1,1)"><g><path fill="none" stroke="none"/><text fill="#000000" stroke="none" font-family="Arial" font-size="13px" font-style="normal" font-weight="normal" text-decoration="none" x="293.5" y="377.5"></text></g></g><g transform="translate(10,10) scale(1,1)"><g><path fill="none" stroke="none"/><text fill="#000000" stroke="none" font-family="Arial" font-size="13px" font-style="normal" font-weight="bold" text-decoration="none" x="262.5" y="377.5">link</text></g></g></g></svg>